<svg width="126" height="96" viewBox="0 0 126 96" fill="none" xmlns="http://www.w3.org/2000/svg">
<path fill-rule="evenodd" clip-rule="evenodd" d="M66.397 44.578C66.397 56.463 56.7627 66.0973 44.8776 66.0973C32.9933 66.0973 23.3583 56.463 23.3583 44.578C23.3583 32.6936 32.9933 23.0593 44.8776 23.0593C56.7627 23.0593 66.397 32.6936 66.397 44.578Z" fill="#F0A949"/>
<path fill-rule="evenodd" clip-rule="evenodd" d="M44.8783 17.2253C43.3799 17.2253 42.166 16.0114 42.166 14.513V2.71224C42.166 1.21392 43.3799 0 44.8783 0C46.3766 0 47.5905 1.21392 47.5905 2.71224V14.513C47.5905 16.0114 46.3766 17.2253 44.8783 17.2253Z" fill="#F0A949"/>
<path fill-rule="evenodd" clip-rule="evenodd" d="M14.5138 47.589H2.71224C1.21392 47.589 0 46.3751 0 44.8768C0 43.3785 1.21392 42.1646 2.71224 42.1646H14.5138C16.0121 42.1646 17.226 43.3785 17.226 44.8768C17.226 46.3751 16.0121 47.589 14.5138 47.589Z" fill="#F0A949"/>
<path fill-rule="evenodd" clip-rule="evenodd" d="M23.4079 26.1186C22.7138 26.1186 22.0198 25.8537 21.4898 25.3238L13.145 16.979C12.0859 15.9206 12.0859 14.2026 13.145 13.1442C14.2049 12.0844 15.9206 12.0844 16.9805 13.1442L25.3253 21.489C26.3844 22.5474 26.3844 24.2654 25.3253 25.3238C24.7954 25.8537 24.1013 26.1186 23.4079 26.1186Z" fill="#F0A949"/>
<path fill-rule="evenodd" clip-rule="evenodd" d="M15.0624 77.4042C14.369 77.4042 13.675 77.14 13.145 76.6101C12.0859 75.5517 12.0859 73.833 13.145 72.7746L21.4898 64.4298C22.5497 63.3707 24.2654 63.3707 25.3253 64.4298C26.3844 65.4882 26.3844 67.2062 25.3253 68.2653L16.9805 76.6101C16.4506 77.14 15.7565 77.4042 15.0624 77.4042Z" fill="#F0A949"/>
<path fill-rule="evenodd" clip-rule="evenodd" d="M66.3487 26.1186C65.6546 26.1186 64.9606 25.8537 64.4314 25.3238C63.3715 24.2654 63.3715 22.5482 64.4314 21.489L72.7747 13.1442C73.8324 12.0844 75.551 12.0844 76.6102 13.1442C77.6693 14.2026 77.6693 15.9198 76.6102 16.979L68.2661 25.3238C67.7376 25.8537 67.0428 26.1186 66.3487 26.1186Z" fill="#F0A949"/>
<path fill-rule="evenodd" clip-rule="evenodd" d="M104.789 52.9458C104.779 52.9458 104.77 52.9465 104.761 52.9465C104.765 52.7644 104.789 52.588 104.789 52.4044C104.789 37.9878 93.1017 26.3008 78.6852 26.3008C64.2686 26.3008 52.5816 37.9878 52.5816 52.4044C52.5816 52.4217 52.5844 52.4382 52.5844 52.4548C41.2754 52.9804 32.2617 62.2878 32.2617 73.7265C32.2617 85.5021 41.8075 95.0478 53.5831 95.0478H104.789C116.415 95.0478 125.839 85.623 125.839 73.9965C125.839 62.3706 116.415 52.9458 104.789 52.9458Z" fill="white"/>
</svg>
