<svg width="26" height="21" viewBox="0 0 26 21" fill="none" xmlns="http://www.w3.org/2000/svg">
<path fill-rule="evenodd" clip-rule="evenodd" d="M4.25802 15.4296L4.44009 15.6095L4.52472 15.6895L6.9956 18.1574C7.10296 18.2673 7.21527 18.3786 7.3762 18.5355C7.46107 18.6227 7.5558 18.7153 7.69794 18.8512L7.7434 18.899C7.80244 18.9614 7.81737 18.977 7.84455 19.0026C8.17154 19.3291 8.56527 19.6149 8.99604 19.8348C9.42767 20.054 9.88857 20.2054 10.3644 20.2848C10.8012 20.3574 11.2425 20.3966 11.6848 20.4021C11.7843 20.4049 11.8349 20.4062 11.8975 20.4077C12.0286 20.4107 12.1393 20.4123 12.2471 20.4123H18.7494H18.7514H19.4062C19.5694 20.4123 19.6978 20.4096 19.9792 20.4018C20.4105 20.3966 20.8526 20.3574 21.2898 20.2849C21.7657 20.2055 22.226 20.0538 22.6552 19.8351C23.0866 19.6163 23.4816 19.3298 23.8245 18.9868C24.1653 18.6436 24.4502 18.2527 24.6714 17.8256C24.8905 17.3885 25.041 16.9311 25.1227 16.4593C25.1948 16.0172 25.2332 15.5778 25.2388 15.1373C25.2448 14.9387 25.248 14.7525 25.248 14.5727V6.39624L25.2462 6.2497C25.2437 6.03732 25.2422 5.94226 25.2385 5.81861C25.2332 5.39118 25.1948 4.95176 25.1239 4.51701C25.041 4.03781 24.8905 3.58047 24.6759 3.1523C24.4522 2.71617 24.166 2.32343 23.8243 1.98191C23.4816 1.63918 23.0866 1.35264 22.6539 1.13321C22.226 0.915123 21.7657 0.763464 21.2905 0.684168C20.8545 0.609018 20.4091 0.569546 19.9626 0.566837C19.6978 0.559305 19.5694 0.556641 19.4062 0.556641H12.2451C12.1373 0.556641 12.0265 0.558201 11.8955 0.561245C11.8329 0.5627 11.7823 0.564045 11.6711 0.567114C11.2419 0.569571 10.7972 0.609056 10.358 0.684895C9.88653 0.763535 9.42563 0.914995 8.99555 1.13332C8.56323 1.35402 8.16951 1.63986 7.8271 1.98129C7.81502 1.99226 7.79448 2.01367 7.69823 2.11648C7.576 2.23168 7.46649 2.3386 7.36098 2.44659C7.1982 2.60495 7.09722 2.70493 6.98583 2.81943L4.44722 5.35149C4.41525 5.38215 4.38298 5.41364 4.34543 5.45069L4.25183 5.54344C4.15197 5.6404 4.08838 5.7036 4.01773 5.77765L1.7515 8.04018L1.72685 8.06445L1.69566 8.09556L1.63815 8.15359C1.58384 8.20867 1.56108 8.23165 1.53516 8.25737C1.44218 8.35026 1.39452 8.39901 1.34099 8.4581C1.15213 8.64238 0.974716 8.83802 0.809738 9.04392C0.650442 9.21258 0.521659 9.40774 0.429262 9.62072L0.403104 9.69006C0.2364 10.2066 0.2364 10.7624 0.403104 11.2789L0.431335 11.353C0.525009 11.5649 0.65308 11.7599 0.810312 11.9301C0.982288 12.1386 1.16463 12.3384 1.35667 12.5287L1.43922 12.6127C1.48623 12.6605 1.50583 12.6802 1.53527 12.7097C1.56459 12.7388 1.58657 12.7609 1.64032 12.8154C1.69587 12.8716 1.72229 12.8983 1.75477 12.9305L4.03216 15.2091L4.25802 15.4296ZM18.7514 19.6429V20.4123L18.7494 19.6544L18.7493 19.6486L18.7494 18.8849H12.2471C12.1526 18.8849 12.0532 18.8835 11.9331 18.8808C11.8734 18.8794 11.8255 18.8781 11.7154 18.8751C11.3391 18.8703 10.9754 18.838 10.6157 18.7782C10.2937 18.7245 9.98138 18.6219 9.68997 18.4739C9.40262 18.3272 9.13856 18.1355 8.90893 17.9066C8.89887 17.8967 8.87958 17.8766 8.85437 17.8499C8.77946 17.7707 8.77264 17.7636 8.74049 17.7344C8.62419 17.6228 8.5401 17.5406 8.45686 17.4554C8.29092 17.2934 8.18641 17.1898 8.08291 17.0838L5.55381 14.5578C5.53001 14.5327 5.50472 14.5091 5.4781 14.4871L5.32953 14.3403L5.10702 14.1231L2.83411 11.8489C2.80443 11.8195 2.78245 11.7973 2.7287 11.7429C2.67315 11.6866 2.64673 11.66 2.61425 11.6277C2.59022 11.6037 2.57319 11.5865 2.5292 11.5419L2.48541 11.4973L2.43981 11.4509C2.27233 11.2849 2.12003 11.1175 1.93919 10.9001C1.90198 10.861 1.87051 10.8169 1.84564 10.7692C1.79357 10.5824 1.79372 10.3849 1.8461 10.1981C1.86784 10.1564 1.89577 10.118 1.92897 10.0845L1.98478 10.0214C2.12031 9.85021 2.26703 9.68814 2.46257 9.49611C2.49905 9.45527 2.53256 9.4208 2.61414 9.33929C2.64373 9.30994 2.67168 9.28172 2.72654 9.22607L2.77845 9.17368L2.80358 9.14861L2.82646 9.12606L5.1112 6.84479C5.17804 6.77505 5.23046 6.72295 5.35941 6.597L5.4196 6.53738C5.43792 6.5193 5.45454 6.503 5.49631 6.46866L8.07445 3.8916C8.18137 3.7818 8.27478 3.68933 8.44163 3.52668C8.54445 3.42177 8.63929 3.32917 8.74982 3.22498C8.77775 3.19843 8.8101 3.16436 8.89148 3.07734C9.13653 2.83341 9.40058 2.64171 9.68948 2.49423C9.97935 2.34708 10.2917 2.24445 10.6141 2.19067C10.9746 2.12842 11.3354 2.09638 11.6969 2.09417L11.7228 2.09349C11.8303 2.09067 11.8756 2.08948 11.931 2.08819C12.0511 2.0854 12.1506 2.084 12.2451 2.084H19.4061C19.5505 2.084 19.6694 2.08647 19.9367 2.09389C20.3158 2.09637 20.6774 2.12841 21.0346 2.18998C21.3598 2.24424 21.6707 2.3467 21.9607 2.49448C22.2506 2.64153 22.5142 2.8327 22.743 3.06153C22.9724 3.29087 23.1644 3.55431 23.3123 3.84259C23.4567 4.13074 23.5602 4.44532 23.6164 4.76989C23.6739 5.1225 23.7056 5.48631 23.7103 5.85098C23.7139 5.97552 23.7153 6.0644 23.7177 6.2677L23.7195 6.40685L23.7194 6.72335V14.5727C23.7194 14.736 23.7164 14.9075 23.7105 15.1049C23.7056 15.4826 23.6739 15.8464 23.6152 16.2064C23.5603 16.5236 23.4567 16.8382 23.3091 17.1327C23.1638 17.4131 22.9708 17.678 22.7412 17.9092C22.5142 18.1362 22.2506 18.3274 21.962 18.4738C21.6707 18.6222 21.3598 18.7247 21.0387 18.7783C20.6787 18.838 20.3141 18.8703 19.9485 18.8748C19.6694 18.8825 19.5505 18.8849 19.4061 18.8849H18.7514V19.6429Z" fill="#50555C"/>
</svg>
