<svg width="17" height="29" viewBox="0 0 17 29" fill="none" xmlns="http://www.w3.org/2000/svg">
<path fill-rule="evenodd" clip-rule="evenodd" d="M1.24001 12.244C1.74811 12.244 2.16 12.6556 2.16 13.1633C2.16 13.1938 2.15851 13.224 2.1556 13.2538V15.785H2.15081V15.7923C2.15081 15.8096 2.15202 15.8268 2.15322 15.8441L2.15464 15.8658L2.1552 15.8771L2.1556 15.8916V16.2372H2.17289C2.44635 19.5065 5.12398 22.0546 8.40535 22.1682H8.77702C12.0594 22.0564 14.7385 19.5075 15.0109 16.2372H15.033V13.1743L15.0401 13.1743L15.04 13.1633C15.04 12.6556 15.4519 12.244 15.96 12.244C16.4681 12.244 16.88 12.6556 16.88 13.1633C16.88 13.1897 16.8789 13.2158 16.8767 13.2416V15.4981H16.8657H16.8653C16.8682 19.7211 13.7093 23.2786 9.51266 23.7787V26.5732H12.9792V26.5849C12.9914 26.5845 13.0037 26.5842 13.016 26.5842C13.5241 26.5842 13.936 26.9958 13.936 27.5035C13.936 28.0112 13.5241 28.4227 13.016 28.4227C13.0037 28.4227 12.9914 28.4225 12.9792 28.422V28.4227H4.21714V28.4221C4.20614 28.4225 4.1951 28.4227 4.18401 28.4227C3.6759 28.4227 3.26401 28.0112 3.26401 27.5035C3.26401 26.9958 3.6759 26.5842 4.18401 26.5842C4.19091 26.5842 4.1978 26.5843 4.20467 26.5845C4.20883 26.5845 4.21299 26.5847 4.21714 26.5848V26.5732H7.69106V23.7787C3.48548 23.2904 0.314892 19.7286 0.320015 15.4981C0.320015 15.4762 0.321865 15.4552 0.323673 15.4348C0.324684 15.4234 0.32568 15.4122 0.326332 15.4009C0.326656 15.3953 0.326897 15.3898 0.327007 15.3842V13.2772C0.322388 13.2399 0.320007 13.2019 0.320007 13.1633C0.320007 12.6556 0.731903 12.244 1.24001 12.244ZM13.5607 13.9501C13.5607 14.5054 13.5607 15.09 13.5312 15.6452C13.5086 16.1459 13.4321 16.6427 13.3031 17.127C13.0151 18.1436 12.4009 19.0375 11.5551 19.6715C9.82007 21.0393 7.37258 21.0393 5.6376 19.6715C4.78953 19.0395 4.17464 18.1448 3.88886 17.127C3.7592 16.6428 3.68282 16.146 3.66107 15.6452C3.62905 15.09 3.632 14.5054 3.632 13.9501V9.30243C3.632 8.75089 3.63494 6.31305 3.632 5.90123C3.64654 5.39753 3.73329 4.89851 3.8896 4.41941C4.47874 2.30843 6.40337 0.848267 8.59669 0.848267C10.79 0.848267 12.7147 2.30843 13.3038 4.41941C13.4421 4.9028 13.5285 5.39955 13.5614 5.90123C13.5945 6.45645 13.5614 8.75089 13.5614 9.30243V13.9501H13.5607ZM11.7206 14.8179C11.7206 15.1709 11.7133 15.2886 11.6912 15.6416C11.6785 15.9621 11.6304 16.2802 11.5477 16.5902C11.3714 17.241 10.9878 17.8167 10.4547 18.2301C9.36256 19.0783 7.83376 19.0783 6.7416 18.2301C6.2065 17.8179 5.82131 17.2419 5.64495 16.5902C5.56405 16.2799 5.51595 15.9619 5.50143 15.6416C5.48303 15.2886 5.47935 15.1709 5.47935 14.8179C5.47935 9.92754 5.45727 6.30204 5.48671 5.91228C5.508 5.59161 5.56101 5.27384 5.64495 4.96362C5.82131 4.31191 6.2065 3.73589 6.7416 3.32369C7.83376 2.47552 9.36256 2.47552 10.4547 3.32369C10.9878 3.7371 11.3714 4.31281 11.5477 4.96362C11.6412 5.27242 11.7004 5.59055 11.7243 5.91228C11.7501 6.33145 11.7206 9.91283 11.7206 14.8179Z" fill="#50555C"/>
</svg>
